<svg viewBox="0 0 500 500" xmlns="http://www.w3.org/2000/svg" xmlns:xlink="http://www.w3.org/1999/xlink" width="100%" id="blobSvg">
  <defs>
    <linearGradient id="gradient" x1="0%" y1="0%" x2="0%" y2="100%">
      <stop offset="0%" style="stop-color: rgba(255, 95, 109, 0.2);"></stop>
      <stop offset="100%" style="stop-color: rgba(255, 195, 113, 0.2);"></stop>
    </linearGradient>
  </defs>
  <path id="blob" d="M438.5,282Q394,314,379.5,345.5Q365,377,342,419.5Q319,462,272,474Q225,486,197.5,437.5Q170,389,136,373.5Q102,358,76,325Q50,292,64.5,253Q79,214,102,186.5Q125,159,143.5,128Q162,97,195.5,72.5Q229,48,275,39.5Q321,31,340,80Q359,129,398.5,147.5Q438,166,460.5,208Q483,250,438.5,282Z" fill="url(#gradient)"></path>
</svg>