<svg viewBox="0 0 500 500" xmlns="http://www.w3.org/2000/svg" xmlns:xlink="http://www.w3.org/1999/xlink" width="100%" id="blobSvg">
  <defs>
    <linearGradient id="gradient" x1="0%" y1="0%" x2="0%" y2="100%">
      <stop offset="0%" style="stop-color: rgba(255, 95, 109, 0.2);"></stop>
      <stop offset="100%" style="stop-color: rgba(255, 195, 113, 0.2);"></stop>
    </linearGradient>
  </defs>
  <path id="blob" d="M433,288.5Q423,327,417.5,378.5Q412,430,368.5,455Q325,480,278.5,450.5Q232,421,190.5,422.5Q149,424,104.5,406Q60,388,52.5,341Q45,294,31.5,247.5Q18,201,55.5,168.5Q93,136,123,109.5Q153,83,191.5,73.5Q230,64,272,58.5Q314,53,345.5,81Q377,109,402,140Q427,171,435,210.5Q443,250,433,288.5Z" fill="url(#gradient)"></path>
</svg>