<svg viewBox="0 0 500 500" xmlns="http://www.w3.org/2000/svg" xmlns:xlink="http://www.w3.org/1999/xlink" width="100%" id="blobSvg">
  <defs>
    <linearGradient id="gradient" x1="0%" y1="0%" x2="0%" y2="100%">
      <stop offset="0%" style="stop-color: rgba(255, 95, 109, 0.2);"></stop>
      <stop offset="100%" style="stop-color: rgba(255, 195, 113, 0.2);"></stop>
    </linearGradient>
  </defs>
  <path id="blob" d="M423.5,290Q430,330,407.5,365Q385,400,347.5,418Q310,436,269,447Q228,458,184.5,448.5Q141,439,114,404Q87,369,89.5,326.5Q92,284,89.5,249.5Q87,215,78.5,167Q70,119,106,91Q142,63,184.5,48.5Q227,34,276.5,24.5Q326,15,363,49.5Q400,84,398,134.5Q396,185,406.5,217.5Q417,250,423.5,290Z" fill="url(#gradient)"></path>
</svg>