<?xml version="1.0" encoding="utf-8"?>
<!-- Generator: Adobe Illustrator 24.3.0, SVG Export Plug-In . SVG Version: 6.00 Build 0)  -->
<svg version="1.1" id="Layer_1" xmlns="http://www.w3.org/2000/svg" xmlns:xlink="http://www.w3.org/1999/xlink" x="0px" y="0px"
	 viewBox="0 0 512 512" style="enable-background:new 0 0 512 512;" xml:space="preserve">
<style type="text/css">
	.st0{fill:#13242C;}
</style>
<g>
	<path d="M211.92,148.82c-2.16,6.72-2.76,13.34-1.86,19.67h-92.63c-33.3,0-64.38-16.72-82.73-44.52L0,71.42h189l6.79,9.07
		c12.99,17.34,16.46,46.59,17.35,58.37C213.39,142.16,212.97,145.52,211.92,148.82z"/>
	<path d="M238.18,257.34l-0.18,1.29h-61.08c-33.3,0-64.37-16.72-82.72-44.51l-20.97-31.76h141.44c2.2,4.02,5.11,7.84,8.72,11.37
		c2.57,2.51,4.04,6.13,4.04,9.92v17.09c0,8.76,6.51,23.13,9.64,29.54C238.13,252.47,238.52,254.93,238.18,257.34z"/>
	<path d="M236.05,272.5l-8.78,62.41h0c-33.3,0-64.38-16.72-82.72-44.51l-11.82-17.9H236.05z"/>
	<path d="M280.53,385.47c-2.76,5.9-3.79,12.41-3.05,18.78h-4.42c-33.3,0-64.38-16.72-82.73-44.52l-2.65-4.02h75.57
		c2.03,6.73,6.6,12.6,12.92,16.21C281.77,375.11,283.99,378.08,280.53,385.47z"/>
	<path d="M512,159.55V71.42H207.87c14.95,19.94,19.16,50.62,20.34,66.3c0.4,5.31-0.27,10.65-1.9,15.72
		c-4.44,13.83,1.69,23.66,7.65,29.49c5.56,5.44,8.59,12.95,8.59,20.72l0,17.09c0,8.57,3.07,16.74,8.18,23.61
		c4.34,5.84,2.91,11.65,2.91,11.65l-11.1,78.91h26.56c4.48,0,8.11,3.63,8.11,8.11v4.86c0,4.54,2.5,8.66,6.45,10.91
		c17.92,10.22,14.27,25.16,10.56,33.1c-2.38,5.07-2.46,10.96-0.28,16.12c9.84,23.25,38.23,19.02,54.55,14.31
		c6.27-1.81,12.05-4.9,17.26-8.84c19.91-15.05,43.21-9.23,43.21-9.23c34.67,0,103.03,36.33,103.03,36.33v-106.5
		c-56.44,40.77-130.77,42.43-130.77,42.43c-6.93-27.74-27.74-62.41-27.74-62.41c90.14-20.8,104-110.94,104-110.94
		c-56.56-31.43-181.5-28.67-204.38-27.88c-4.22,0.15-8.39-1.45-11.18-4.61c-6.27-7.1-3.67-18.5-1.41-24.98
		c1.08-3.1,3.91-5.24,7.18-5.49c53.75-4.1,207.5,27.81,209.76,28.28c-34.71-20.8-214.93-41.59-214.93-41.59l-6.93-27.74
		C332.69,92.22,512,159.55,512,159.55z M277.22,189.3c38.35,0,88.49,0,128.68,10.86c6.75,1.82,11.54,7.77,11.83,14.75
		c0.77,19.11-7.42,56.31-78.1,71.45c0,0-32.8,15.81-6,46.05c0,0,54.54,64.9-14.81,78.77c0,0-17.94-5.98-9.4-23.49
		c4.29-8.8,4.47-19.19-0.46-27.64c-1.43-2.45-3.33-4.9-5.83-7.25c-3.26-3.05-5.11-7.32-5.11-11.79l0-13.04l-48.54,0.38l6.93-69.72
		c0,0,13.87,0,13.87,34.67v20.8h27.74l-13.87-48.54c0,0,34.51,5.75,51.14-8.93c3.71-3.27,8.58-4.93,13.53-4.93h25.47
		c0,0-19.78-19.77-117.23-20.75c-4.26-0.04-7.52-3.78-6.98-8C251.65,210.87,257.25,189.3,277.22,189.3z"/>
</g>
</svg>
