<?xml version="1.0" encoding="utf-8"?>
<!-- Generator: Adobe Illustrator 24.3.0, SVG Export Plug-In . SVG Version: 6.00 Build 0)  -->
<svg version="1.1" id="Layer_1" xmlns="http://www.w3.org/2000/svg" xmlns:xlink="http://www.w3.org/1999/xlink" x="0px" y="0px"
	 viewBox="0 0 4006 512" style="enable-background:new 0 0 4006 512;" xml:space="preserve">
<style type="text/css">
	.st0{fill:#13242C;}
</style>
<g>
	<g>
		<path d="M290.31,109.17c-2.95,9.21-3.78,18.28-2.55,26.95h-126.9c-45.62,0-88.2-22.91-113.33-60.99L0,3.13h258.92l9.31,12.43
			c17.8,23.75,22.55,63.83,23.76,79.96C292.33,100.05,291.76,104.64,290.31,109.17z"/>
		<path d="M326.3,257.84l-0.25,1.77h-83.67c-45.62,0-88.19-22.91-113.33-60.98l-28.72-43.5h193.76c3.01,5.51,7,10.74,11.94,15.57
			c3.52,3.44,5.54,8.39,5.54,13.59v23.42c0,12,8.92,31.69,13.2,40.47C326.23,251.17,326.77,254.54,326.3,257.84z"/>
		<path d="M323.38,278.6l-12.03,85.5h0c-45.62,0-88.19-22.91-113.33-60.98l-16.19-24.52H323.38z"/>
		<path d="M384.31,433.37c-3.78,8.08-5.19,17-4.18,25.72h-6.05c-45.62,0-88.2-22.91-113.33-60.99l-3.64-5.51h103.53
			c2.78,9.22,9.04,17.26,17.7,22.2C386.01,419.18,389.05,423.25,384.31,433.37z"/>
		<path d="M701.41,123.86V3.13H284.78c20.48,27.31,26.24,69.34,27.86,90.83c0.55,7.28-0.37,14.59-2.61,21.54
			c-6.08,18.95,2.32,32.41,10.47,40.4c7.61,7.45,11.76,17.74,11.76,28.39l0,23.42c0,11.74,4.21,22.93,11.21,32.35
			c5.95,8,3.99,15.95,3.99,15.95l-15.2,108.1h36.38c6.14,0,11.12,4.98,11.12,11.12v6.65c0,6.22,3.43,11.86,8.83,14.94
			c24.55,14,19.56,34.47,14.46,45.35c-3.26,6.95-3.37,15.02-0.38,22.08c13.49,31.85,52.37,26.05,74.73,19.6
			c8.59-2.48,16.51-6.72,23.64-12.11c27.27-20.62,59.2-12.64,59.2-12.64c47.5,0,141.15,49.78,141.15,49.78v-145.9
			c-77.32,55.85-179.15,58.13-179.15,58.13c-9.5-38-38-85.5-38-85.5c123.49-28.5,142.48-151.98,142.48-151.98
			c-77.49-43.06-248.65-39.28-279.99-38.19c-5.78,0.2-11.49-1.98-15.31-6.32c-8.59-9.73-5.03-25.34-1.93-34.23
			c1.48-4.25,5.35-7.17,9.84-7.51c73.64-5.62,284.26,38.1,287.36,38.74c-47.55-28.5-294.44-56.98-294.44-56.98l-9.5-38
			C455.77,31.63,701.41,123.86,701.41,123.86z M379.77,164.62c52.54,0,121.22,0,176.29,14.88c9.24,2.5,15.82,10.64,16.2,20.21
			c1.06,26.18-10.16,77.14-107,97.89c0,0-44.93,21.66-8.22,63.09c0,0,74.71,88.91-20.28,107.9c0,0-24.57-8.19-12.87-32.18
			c5.88-12.05,6.12-26.29-0.63-37.87c-1.96-3.36-4.56-6.72-7.99-9.93c-4.47-4.18-7-10.03-7-16.15l0-17.87l-66.5,0.52l9.5-95.52
			c0,0,19,0,19,47.5v28.5h38l-19-66.5c0,0,47.27,7.88,70.07-12.24c5.08-4.49,11.75-6.76,18.53-6.76h34.9c0,0-27.1-27.09-160.6-28.43
			c-5.83-0.06-10.31-5.17-9.56-10.96C344.75,194.17,352.41,164.62,379.77,164.62z"/>
	</g>
	<path d="M1918.58,322.48l-1.86-2.12h0.65c14.64,0,29.28-2.2,43.09-7.15c38.42-13.75,51.47-40.18,51.55-90.34
		c0.05-27.37,0.08-54.74-0.05-82.11c-0.31-61.71-31.4-93.14-93.06-93.35h-304.02v415.81h76.98V320.36h120.22l12.07,13.25l0.03,0.03
		c1.2,1,2.33,2.04,3.35,3.12c21.29,22.34,41.72,45.5,62.18,68.62l0.08,0.08l43.72,48.25l10.08,11.11h99.37L1918.58,322.48z
		 M1693.3,237.95v-109.9h239.4v109.9H1693.3z M1169.37,386.73c-1.81,39.89-29.05,75.41-66.4,76.38c-1.3,0.03-3,0.12-4.74,0.22
		c-6.48,0.4-12.97,0.59-19.47,0.59h-270.8v-75.93h282.09v-92.01H966.69c-25.25,0-50.55,0.71-75.78-0.13
		c-49.69-1.62-81.38-30.99-84.29-80.02c-1.81-30.41-1.47-61.13,0.47-91.54c2.67-41.67,30.78-74.33,71.35-75.38
		c0.59-0.02,1.33-0.07,2.09-0.13c5.46-0.48,10.94-0.65,16.42-0.65h267.25v78.55H886.75v90.7c59.64,0,118.23-0.03,176.83,0
		c78.55,0.03,106.08,27.58,106.11,106.21C1169.68,344.61,1170.31,365.72,1169.37,386.73z M1558.67,47.07c0,27.68,0,51.31,0,79
		c-85.25,0-168.83,0-253.97,0c0,31.9,0,59.73,0,90.12c73.91,0,146.23,0,221.4,0c0,26.94,0,51.41,0,79.78c-73.19,0-146.37,0-221.27,0
		c0,31.68,0,59.52,0,90.86c84.85,0,168.46,0,253.75,0c0,27.13,0,50.75,0,78.4c-34.12,0-66.45,0.06-98.77-0.01
		c-53.71-0.12-107.42,0.24-161.12-0.7c-41.92-0.73-71.76-27.38-72.34-67.86c-1.34-93.71-1.25-187.45-0.04-281.16
		c0.49-37.47,30.88-67.31,69.88-67.97C1382.43,46.06,1468.7,47.07,1558.67,47.07z M2946.27,123.73
		c-0.97-44.45-28.37-75.04-72.03-75.62h-304.78v415.78h76.69V320.91h37.59c62.1-0.03,124.18,0.58,186.26-0.26
		c48.98-0.68,75.49-27.79,76.35-76.98C2947.06,203.69,2947.14,163.67,2946.27,123.73z M2866.54,237.69h-218.5V129.73h218.5V237.69z
		 M3310.53,48.55c28.24,0,51,0,76.27,0c0,138.18,0,275.48,0,414.78c-23.13,0-46.84,0-74.35,0c0-53.93,0-108.1,0-164.77
		c-81,0-158.25,0-239.2,0c0,54.56,0,108.73,0,164.9c-27.2,0-50.76,0-76.32,0c0-138.19,0-275.46,0-414.47c25.09,0,48.65,0,75.37,0
		c0,55.93,0,110.16,0,166.37c80.45,0,157.76,0,238.24,0C3310.53,160.52,3310.53,106.21,3310.53,48.55z M3452.97,48.72
		c26.14,0,48.88,0,73.69,0c0,138.59,0,275.55,0,414.57c-24.76,0-48.21,0-73.69,0C3452.97,324.87,3452.97,187.88,3452.97,48.72z
		 M2489.06,357.22l-33.71-73.34L2345.86,45.61h-88.48l-105.79,238.27l-32.56,73.34l-48.46,109.17h73.81l49.14-109.17h218.5
		l47.38,109.17h79.81L2489.06,357.22z M2226.55,283.88l78.21-173.76l75.43,173.76H2226.55z M4006,47.3V464.7h-86.91l-261.1-304.51
		V464.7h-74.2V47.3h79.68l262.4,303.49V47.3H4006z"/>
</g>
</svg>
